<?xml version="1.0" encoding="utf-8"?>
<!-- Generator: Adobe Illustrator 27.9.0, SVG Export Plug-In . SVG Version: 6.00 Build 0)  -->
<svg version="1.1" id="Layer_1" xmlns="http://www.w3.org/2000/svg" xmlns:xlink="http://www.w3.org/1999/xlink" x="0px" y="0px"
	 viewBox="0 0 140 140" style="enable-background:new 0 0 140 140;" xml:space="preserve">
<style type="text/css">
	.st0{fill:#F70068;}
	.st1{fill:#FE3A13;}
	.st2{fill:#F30070;}
	.st3{fill:#F6006A;}
	.st4{fill:#F3006F;}
	.st5{fill:#F10073;}
	.st6{fill:#F4006C;}
	.st7{fill:#FE3129;}
	.st8{fill:#FE3327;}
	.st9{fill:#FE371B;}
	.st10{fill:#FE3424;}
	.st11{fill:#FE302B;}
	.st12{fill:#F80067;}
	.st13{fill:#FE3620;}
	.st14{fill:#F10074;}
	.st15{fill:#FE1E46;}
	.st16{fill:#FA0061;}
	.st17{fill:#FE2F2E;}
	.st18{fill:#F80065;}
	.st19{fill:#FE2B35;}
	.st20{fill:#FE283A;}
	.st21{fill:#FE302D;}
	.st22{fill:#FE2F2D;}
	.st23{fill:#FE2D31;}
	.st24{fill:#FC005C;}
	.st25{fill:#FE2C33;}
	.st26{fill:#FE1B4A;}
	.st27{fill:#FE2D32;}
	.st28{fill:#F90064;}
	.st29{fill:#FE2043;}
	.st30{fill:#FE253C;}
	.st31{fill:#FE2A36;}
	.st32{fill:#FE3818;}
	.st33{fill:#FE371D;}
	.st34{fill:#FE2242;}
	.st35{fill:#FE243F;}
	.st36{fill:#FE2E30;}
	.st37{fill:#FE0857;}
	.st38{fill:#FD015B;}
	.st39{fill:#FE144F;}
	.st40{fill:#FE0F54;}
	.st41{fill:#FE3A16;}
	.st42{fill:#FE3917;}
	.st43{fill:#FD0559;}
	.st44{fill:#FE2240;}
	.st45{fill:#FE194B;}
	.st46{fill:#FE174E;}
	.st47{fill:#FE1251;}
	.st48{fill:#FE0B55;}
	.st49{fill:#FE3A14;}
	.st50{fill:#F00277;}
	.st51{fill:#FE2D34;}
	.st52{fill:#FE1D47;}
	.st53{fill:#FE263B;}
	.st54{fill:#FA0060;}
	.st55{fill:#F90063;}
	.st56{fill:#FB005D;}
	.st57{fill:#FE2938;}
	.st58{fill:#FE1450;}
	.st59{fill:#FE0E53;}
	.st60{fill:#FC025B;}
	.st61{fill:#FE164D;}
	.st62{fill:#FE194C;}
	.st63{fill:#FEFEFE;}
	.st64{fill:#FEB400;}
	.st65{fill:#FEFEFC;}
	.st66{fill:#FE8A02;}
	.st67{fill:#FE6001;}
	.st68{fill:#FEC601;}
	.st69{fill:#FE7400;}
	.st70{fill:#FEAD00;}
	.st71{fill:#FE6A00;}
	.st72{fill:#FEBE01;}
	.st73{fill:#FE7F01;}
	.st74{fill:#FE8409;}
	.st75{fill:#FEA102;}
	.st76{fill:#FE9902;}
	.st77{fill:#FEC754;}
</style>
<g id="uQf6fT.tif">
	<g>
		<path class="st0" d="M110.3,7.5c0.1-0.1,0.2-0.2,0.3-0.3c0.9,0,1.7,0,2.6,0c1.5,0.6,3,1.2,3.9,2.6c0.5,0.8,0.5,1.6,0.5,2.5
			c0,15.2,0,30.5,0,45.7c0,0.9,0,1.7-0.5,2.5c-1.6,1.8-3.5,2.8-6,2.4c-0.2-3.9,0-7.7-0.1-11.6c0-1.3,0-2.6-0.2-3.9
			c1.7-1.6,3.4-3.1,5.3-4.9c-1.2-0.7-2-0.3-2.7-0.5c-1.4-0.2-2.8,0.3-4.1-0.3c-0.3-0.6-0.3-1.3-0.3-1.9c0-3.2,0-6.3,0-9.5
			c0-0.8-0.1-1.5,0.5-2.2c2,0,4.1,0,6.1,0c0.1-0.2,0.2-0.4,0.4-0.6c-2-1.9-4.1-3.8-6.1-5.7c-0.4-4.5-0.2-8.9-0.1-13.4
			C109.9,8.1,110.1,7.8,110.3,7.5z"/>
		<path class="st1" d="M0,60.5c0.8-1.5,0.5-3.2,1-4.8c0.6-2.1,1-4.3,2-6.3c0.9,0.2,0.8,1,0.8,1.6c0.1,5.4,0.1,10.8,0,16.1
			c0,0.6,0.1,1.4-0.8,1.6c-1.7-1-2.4-2.7-2.7-4.5C0,63.3,0.4,62.3,0,61.5C0,61.2,0,60.8,0,60.5z"/>
		<path class="st2" d="M132.6,45c-2.3,2.6-4.7,4.9-7.2,7.3c-0.9-0.4-0.8-1.2-0.8-2c0-10.1,0-20.3,0-30.4c0-0.8,0-1.6,0.8-2
			c2.5,2.3,5,4.7,7.2,7.3c0.2,0.3,0.3,0.7,0.3,1.1c-0.2,5.9-0.1,11.8,0,17.7C132.9,44.3,132.8,44.7,132.6,45z"/>
		<path class="st3" d="M117.2,60.5c0-16.9,0-33.8,0-50.7c1.5,1.3,2.9,2.7,4.3,4.3c0.5,0.8,0.5,1.6,0.5,2.5c0,12.4,0,24.8,0,37.2
			c0,0.9,0,1.7-0.5,2.5C120.1,57.7,118.7,59.1,117.2,60.5z"/>
		<path class="st4" d="M124,86c1.4-3.1,1.9-6.3,2-9.7c0.1-3.3,2.2-5.6,5.3-6.1c0.6,0.6,0.5,1.4,0.5,2.1c0.1,8.6-0.1,17.3,0.1,25.9
			c0,0.4-0.1,0.9-0.2,1.3c-1.8,2.4-4.1,4.4-6.6,6c-1-0.7-0.8-1.7-0.8-2.7c0-4.8,0-9.7,0-14.5C124.2,87.6,124.3,86.8,124,86z"/>
		<path class="st5" d="M131.7,99.6c-0.3-0.9-0.4-1.9-0.4-2.9c0-8.8,0-17.6,0-26.4c2.5-0.6,4.7-0.2,6.6,1.6c0.5,0.8,0.5,1.6,0.5,2.5
			c-0.1,4.4,0.1,8.8-0.2,13.2C136.9,92.2,134.7,96.1,131.7,99.6z"/>
		<path class="st6" d="M121.5,56.2c0-14.1,0-28.1,0-42.2c1.4,1.2,2.7,2.5,3.9,3.9c-0.4,0.6-0.3,1.4-0.3,2.1c0,10.1,0,20.3,0,30.4
			c0,0.7-0.1,1.3,0.3,1.9C124.2,53.7,122.9,55,121.5,56.2z"/>
		<path class="st7" d="M22.5,129.9c-1-0.8-1.8-1.6-2.6-2.6c-0.1-0.7-0.2-1.5-0.2-2.3c0-13.3,0-26.7,0-40c0-0.9-0.1-1.7,0.2-2.6
			c0.8-1,1.6-1.8,2.6-2.6c1,0.4,0.8,1.3,0.8,2.1c0,3.4,0,6.7,0,10.1c0,11.8,0,23.5,0,35.3C23.4,128.2,23.9,129.4,22.5,129.9z"/>
		<path class="st8" d="M20,82.4c0.5,0.5,0.3,1.1,0.3,1.7c0,13.8,0,27.5,0,41.3c0,0.6,0.3,1.3-0.3,1.8c-1.2-1-2.3-2.1-3.3-3.3
			c0.1-0.7,0.2-1.4,0.2-2.1c0-12.1,0.1-24.1-0.1-36.2C17.7,84.5,18.8,83.4,20,82.4z"/>
		<path class="st9" d="M6.5,42.8c1.3-1.8,2.6-3.5,4.3-4.9c1,0.4,0.8,1.3,0.8,2c0,3.8,0,7.6,0,11.4c0,5.1,0,10.1,0,15.2
			c0,0.9,0.1,1.9-0.8,2.5c-1.7,1-3.4,1.3-5.3,0.7c0.7-0.6,1.2-1.3,1.2-2.3c0-8,0-16,0-23.9C6.7,43.2,6.6,43,6.5,42.8z"/>
		<path class="st10" d="M16.7,85.7c0.8,0.1,0.6,0.8,0.6,1.3c0,11.9,0,23.7,0,35.6c0,0.6,0.2,1.3-0.7,1.4c-1.1-0.9-2.1-1.9-2.9-2.9
			c0.4-9.9,0.1-19.8,0.2-29.6c0-0.9-0.3-1.8-0.1-2.8C14.7,87.6,15.7,86.6,16.7,85.7z"/>
		<path class="st11" d="M22.5,129.9c0.6-0.5,0.4-1.1,0.4-1.7c0-15.6,0-31.2,0-46.9c0-0.5,0.2-1.1-0.3-1.5c0.5-0.7,1-1.4,1.9-1.7
			c0.8,0,0.8,0.7,0.8,1.2c0.1,5.6,0.2,11.2,0,16.8c0,0.1-0.1,0.2-0.1,0.3c-0.3,0.4-0.7,0.7-1,1.1c0,0.7,1.2,0.4,1.1,1.2
			c0.3,3.9,0.1,7.8,0.1,11.8c0,0.5-0.1,1-0.5,1.3c-0.3,0-0.5,0.1-0.8,0.1c0.5,0.6,1,1.1,1.5,1.6c0.2,0.3,0.3,0.7,0.3,1.1
			c-0.1,5,0,10-0.1,15c0,0.8,0.1,1.8-0.8,2.3C23.8,131.5,23.2,130.7,22.5,129.9z"/>
		<path class="st12" d="M116.2,110c-2.1,0.9-4.3,1.3-6.6,1.5c-0.8-0.6-0.8-1.5-0.8-2.4c0-2.8,0-5.7,0-8.5c0-1-0.1-2-0.5-2.9
			c2.6-0.6,5.2-1.4,7.6-2.7c0.7,0.4,0.8,1.1,0.8,1.8c0.1,3.8,0.1,7.7,0,11.5C116.7,109,116.6,109.5,116.2,110z"/>
		<path class="st13" d="M13.8,88.7c0.6,0.6,0.6,1.3,0.6,2.1c0,9.4,0,18.8,0,28.2c0,0.8,0,1.5-0.7,2.1c-1.1-0.9-2.1-1.9-2.9-2.9
			c-0.1-0.6-0.2-1.3-0.2-1.9c0-7.5,0-15,0-22.5c0-0.7,0-1.4,0.2-2.1C11.7,90.5,12.7,89.5,13.8,88.7z"/>
		<path class="st14" d="M132.6,45c-0.7-3.2-0.3-6.5-0.3-9.7c0-3.4-0.4-6.7,0.3-10.1c2.4,2.3,5.2,4.2,6.7,7.3
			c1.1,2.3,0.8,4.7-0.9,6.7C136.7,41.3,134.7,43.3,132.6,45z"/>
		<path class="st13" d="M10.8,69c0.3-0.5,0.3-1.1,0.3-1.7c0-9.3,0-18.6,0-27.9c0-0.5,0.2-1.1-0.3-1.5c0.8-1,1.9-1.9,3-2.6
			c1,0.4,0.8,1.3,0.8,2.1c0,4.5,0,9,0,13.5c0,2.2,0.1,4.4,0.2,6.7c-0.3,2.2-0.5,4.4-0.7,6.6C13.9,66.3,12.9,68.1,10.8,69z"/>
		<path class="st3" d="M116.2,110c0-4,0-8,0-12c0-1-0.1-1.9-0.4-2.9c1.8-1.2,3.5-2.6,5-4.2c1.2-0.2,1,0.8,1,1.4
			c0.1,1.4,0.1,2.7,0.1,4.1c0,3,0,6,0,9c0,0.8,0,1.6-0.5,2.4C119.9,108.7,118.1,109.5,116.2,110z"/>
		<path class="st15" d="M63.8,111.8c-1.9,0-3.7,0-5.6,0c-0.6-0.6-0.5-1.4-0.5-2.2c0-2.8,0-5.7,0-8.5c0-2.5,0-2.5-2.4-2.5
			c-0.3,0-0.5,0-0.8,0c-1,0-1.9,0-2.9,0c-0.5-0.1-1,0-1.2-0.6c7.2-0.1,14.4-0.1,21.6,0c0,0.2-0.1,0.3-0.3,0.4
			c-0.6,0.2-1.3,0.2-1.9,0.2c-0.9,0-1.9,0-2.8,0c-0.2,0-0.4,0-0.6,0c-1.9,0.1-2,0.2-2,2.1c0,3,0,6,0,8.9
			C64.3,110.4,64.4,111.2,63.8,111.8z"/>
		<path class="st16" d="M105.4,111.8c-2,0-3.9,0-5.9,0c-0.5-0.5-0.5-1.1-0.5-1.7c0-3.5,0-7,0-10.5c0-0.5,0-1.1,0.4-1.6
			c2-0.4,4-0.2,6-0.1c0.6,0.6,0.5,1.3,0.5,2c0,3.5,0,6.9,0,10.4C106,110.9,106,111.5,105.4,111.8z"/>
		<path class="st17" d="M24.9,131.9c0.4-0.6,0.3-1.4,0.3-2.1c0-4.6,0-9.1,0-13.7c0-0.9,0.1-1.7,0.3-2.6c1.5,1.3,2.9,2.7,4.3,4.3
			c0.4,0.6,0.5,1.3,0.5,2c0,3.6,0,7.3,0,10.9c0,0.7-0.1,1.3-0.5,1.8C28.1,133.1,26.4,132.9,24.9,131.9z"/>
		<path class="st18" d="M110.9,47.4c0.5,0.1,0.7,0.4,0.7,0.9c0,4.6,0,9.3,0,13.9c0,0.2-0.2,0.4-0.4,0.7c-2.8-0.2-4.6-1.8-5.7-4.2
			c-1.1-2.4-0.7-4.8,1-6.9C107.9,50.2,109.5,48.8,110.9,47.4z"/>
		<path class="st19" d="M31.7,28.4c2.3-0.5,4.6-0.2,7-0.2c0.4,0.4,0.5,0.9,0.5,1.3c0,3.8,0.1,7.5,0,11.3c0,0.3-0.1,0.6-0.3,0.9
			c-1.5,0.7-3.2,0.1-4.8,0.3c-0.3,0-0.7,0-1,0.1c-0.4-1.8-0.1-3.7-0.2-5.5c-0.1-1.8-0.1-3.7,0-5.5C33,30,32.7,29,31.7,28.4z"/>
		<path class="st20" d="M44.5,111.8c-1.7,0-3.5,0-5.2,0c-0.5-0.5-0.5-1.1-0.5-1.7c0-3.5,0-7,0-10.5c0-0.5,0-1.1,0.4-1.5
			c1.8-0.3,3.6-0.2,5.4,0c0.4,0.4,0.4,1,0.4,1.5c0,3.5,0,7,0,10.5C45,110.8,45,111.4,44.5,111.8z"/>
		<path class="st21" d="M25.2,96.5c-0.4-0.6-0.3-1.2-0.3-1.9c0-4.9,0-9.8,0-14.7c0-0.6,0.2-1.2-0.3-1.7c1.3-1,2.7-1.4,4.3-1
			c0.5,0.7,0.5,1.4,0.5,2.2c0,3.8,0,7.5,0,11.3c0,0.8-0.1,1.6-0.5,2.4C27.7,94.2,26.6,95.5,25.2,96.5z"/>
		<path class="st10" d="M14.7,57.6c-0.5-1-0.7-2.1-0.7-3.3c0-5.7,0-11.5,0-17.2c0-0.6,0.2-1.2-0.3-1.7c1.1-1,2.2-1.8,3.5-2.4
			c0.5,0.4,0.5,1,0.5,1.5c0,5.3,0.1,10.5,0,15.8c0,0.3,0,0.5-0.2,0.8C16.4,53.1,15.5,55.3,14.7,57.6z"/>
		<path class="st22" d="M23.9,30c1.6-0.8,3.2-1.1,5-1.3c0.5,0.5,0.5,1.1,0.5,1.7c0.1,3.9,0,7.7,0.1,11.6c0,0.3-0.1,0.5-0.2,0.8
			c-1.5,0.6-3.1,1.3-4.6,1.9c-0.6-0.3-0.8-0.9-0.8-1.5C23.7,38.8,23.6,34.4,23.9,30z"/>
		<path class="st23" d="M29.1,42.8c-0.5-1.5-0.3-3-0.3-4.5c0-3.2,0-6.4,0-9.5c0.9-0.4,1.9-0.4,2.8-0.4c1.4-0.2,1.8,0.5,1.8,1.9
			c-0.1,3.3,0,6.6,0,10c0,0.6,0.1,1.3-0.3,1.9C31.8,42.3,30.5,42.6,29.1,42.8z"/>
		<path class="st6" d="M121.5,107.8c0-5.1,0-10.1-0.1-15.2c0-0.6,0.4-1.4-0.5-1.7c1.2-1.5,2.1-3.3,3.1-4.9c1.3-0.3,0.7,0.7,0.7,1.1
			c0,5.4,0,10.7,0,16.1c0,0.8,0.1,1.6,0.3,2.4C124,106.5,122.8,107.2,121.5,107.8z"/>
		<path class="st24" d="M99.5,98.2c0,4.5,0,9.1,0,13.6c-1.5,0-3.1,0-4.6,0c-0.5-0.5-0.5-1.1-0.5-1.7c0-3.5,0-7,0-10.4
			c0-0.5,0-1.1,0.4-1.6C96.4,97.9,98,97.8,99.5,98.2z"/>
		<path class="st7" d="M23.9,30c0.6,0.5,0.4,1.1,0.4,1.7c0,3.5,0,7.1,0,10.6c0,0.8,0.1,1.6,0.3,2.4c-1.4,1-2.8,2.1-4.2,3.1
			c-0.7-0.7-0.5-1.6-0.5-2.5c-0.1-4.6,0.1-9.1-0.1-13.7C21,30.9,22.4,30.4,23.9,30z"/>
		<path class="st9" d="M8.8,116.2c-1.2-1-2.3-2.1-3.3-3.3c0.3-5.3,0.3-10.7,0-16c1.1-1.1,2.2-2.2,3.3-3.3c0.9,0.2,0.8,0.9,0.8,1.5
			c0.1,6.5,0.1,13,0,19.6C9.6,115.2,9.7,116,8.8,116.2z"/>
		<path class="st25" d="M35.4,111.8c-1.4,0-2.8,0-4.3,0c-0.5-0.5-0.5-1.1-0.5-1.7c0-3.5,0-7,0-10.4c0-0.5,0-1.1,0.4-1.6
			c1.5-0.3,3-0.3,4.4,0c0.4,0.5,0.4,1.1,0.4,1.7c0,3.4,0,6.8,0,10.2C35.9,110.7,35.9,111.3,35.4,111.8z"/>
		<path class="st26" d="M109.7,41.8c1.3,0.2,2.6-0.2,3.9,0.2c-0.4,0-0.8,0.1-1.1,0.1c-16.6,0-33.1,0-49.7,0c-0.4,0-0.8-0.1-1.1-0.1
			c0.1-0.2,0.2-0.3,0.4-0.4c1.4-0.1,1.8-1,1.8-2.3c-0.1-3,0-5.9,0-8.9c0-0.7-0.1-1.5,0.5-2.2c1,0,2,0,2.9,0c0.6,0.6,0.5,1.4,0.5,2.2
			c0,2.9,0,5.8,0,8.6c0,2.3,0,2.3,2.4,2.4c1,0,2,0,3,0c1.1,0,2.2,0,3.3,0c1,0,2,0,3,0c1.1,0,2.2,0,3.3,0c1,0,2,0,3,0
			c1.1,0,2.2,0,3.3,0c1,0,2,0,3,0c1.1,0,2.2,0,3.3,0c1.5,0,3,0,4.6,0c1.7,0,3.5,0,5.2,0C106.4,41.5,108.1,40.9,109.7,41.8z"/>
		<path class="st27" d="M29.8,132.5c0-4.9,0-9.8,0-14.7c1.5,1.2,2.9,2.5,4,4.1C36.7,125.8,34.5,131.5,29.8,132.5z"/>
		<path class="st28" d="M105.4,111.8c0-4.6,0-9.1,0-13.7c0.1-0.3,0.4-0.1,0.6-0.2c0.8,0,1.5-0.1,2.3-0.1c1-0.1,1.1,0.6,1.1,1.4
			c0,3.3,0,6.6,0,9.9c0,0.8,0.1,1.6,0.3,2.4C108.3,111.8,106.9,112,105.4,111.8z"/>
		<path class="st29" d="M54.3,98.2c3.9-0.1,3.9-0.1,3.9,3.7c0,3.3,0,6.6,0,10c-1.3,0-2.6,0-3.9,0c-0.5-0.5-0.5-1.2-0.5-1.8
			c0-3.3,0-6.7,0-10C53.8,99.4,53.8,98.7,54.3,98.2z"/>
		<path class="st30" d="M44.5,111.8c0-4.6,0-9.1,0-13.7c1.1-0.4,2.3-0.1,3.4-0.2c0.6,0,0.9,0.4,1,0.9c0.2,4.1,0.3,8.3-0.1,12.4
			c0,0.2-0.2,0.4-0.3,0.5C47.1,111.8,45.8,111.8,44.5,111.8z"/>
		<path class="st31" d="M35.4,111.8c0-4.5,0-9.1,0-13.6c1.3-0.3,2.6-0.3,3.9,0c0,4.6,0,9.1,0,13.7C38,111.8,36.7,111.8,35.4,111.8z"
			/>
		<path class="st21" d="M24.9,111.8c0-4.6,0-9.1,0-13.7c1.3-0.3,2.7-0.3,4,0c0.4,0.6,0.4,1.2,0.4,1.9c0,3.3,0,6.5,0,9.8
			c0,0.7,0,1.4-0.5,2C27.5,111.8,26.2,111.8,24.9,111.8z"/>
		<path class="st32" d="M6.5,42.8c0.8,0.1,0.7,0.7,0.7,1.3c0,8.1,0,16.1,0,24.2c0,1.5-0.8,1.4-1.8,1.4c-0.4,0-0.9,0-1.2-0.4
			c0.2-0.8,0.5-1.7,0.5-2.5c0-6.1,0-12.3,0-18.4c0-0.8,0-1.5-0.2-2.3C5.1,44.9,5.7,43.8,6.5,42.8z"/>
		<path class="st8" d="M19.7,31.7c1,0.2,0.6,1,0.6,1.6c0,4.8,0,9.7,0.1,14.5c-0.9,1.1-1.8,2.1-2.7,3.2c-0.3-0.9-0.3-1.8-0.3-2.7
			c0-5.1,0-10.2,0-15.3C18,32.4,18.8,31.9,19.7,31.7z"/>
		<path class="st33" d="M8.8,116.2c0.5-0.3,0.4-0.9,0.4-1.3c0-6.6,0-13.3,0-19.9c0-0.5,0.1-1-0.3-1.4c0.7-0.6,1.3-1.3,2-1.9
			c0.4,0.4,0.3,0.9,0.3,1.4c0,7.9,0,15.7,0,23.6c0,0.5,0.2,1.1-0.3,1.5C10,117.6,9.4,116.9,8.8,116.2z"/>
		<path class="st34" d="M61.6,41.9C61.6,41.9,61.6,42,61.6,41.9c-6.2,0.1-12.3,0.2-18.5,0.2c-3,0-6,0-9,0c1.5-0.5,3,0,4.5-0.2
			c1.2-0.8,2.6-0.4,3.9-0.4c1.9-0.1,3.9-0.1,5.8,0c2.8-0.1,2.8-0.1,2.8-2.9c0-2.7,0-5.4,0-8.1c0-0.7-0.1-1.5,0.5-2.2c1,0,2,0,2.9,0
			c0.6,0.6,0.5,1.4,0.5,2.2c0,2.8,0,5.7,0,8.5c0,2.4,0,2.5,2.4,2.5c0.2,0,0.4,0,0.7,0C59.4,41.4,60.6,41,61.6,41.9z"/>
		<path class="st35" d="M28.8,98.2c-1.3,0-2.6,0-3.9,0c-0.3-0.2-1.2,0.3-0.7-0.7c0.5,0.7,1.2,0.4,1.8,0.4c7.6,0,15.1,0,22.7,0
			c0.6,0,1.2,0.1,1.8,0.1c0.3,0.1,0.6,0.1,0.9,0.2c0.5,0.5,0.5,1.2,0.5,1.8c0,3.3,0,6.7,0,10c0,0.7,0,1.3-0.5,1.8c-1,0-2,0-2.9,0
			c0-4-0.1-8.1,0-12.1c0-1.3-0.4-1.8-1.7-1.6c-0.8,0.1-1.5,0-2.3,0.1c-1.7,0-3.5,0-5.2,0c-1.3,0-2.6,0-3.9,0c-1.4,0-2.8,0-4.3,0
			C30.3,98.7,29.6,98.7,28.8,98.2z"/>
		<path class="st36" d="M28.8,92.9c0-5.3,0-10.5,0-15.8c1.4,0,2.6,0.5,3.6,1.5c0.4,0.5,0.3,1,0.2,1.6c-0.1,2.5-0.1,5.1,0,7.6
			c0,0.5,0.1,1.1-0.2,1.6C31.3,90.6,30.1,91.8,28.8,92.9z"/>
		<path class="st37" d="M88.7,111.8c-1.1,0-2.2,0-3.3,0c-0.5-0.5-0.5-1.1-0.5-1.7c0-3.5,0-7,0-10.4c0-0.5,0-1.1,0.4-1.6
			c1.2-0.3,2.3-0.2,3.5,0c0.4,0.5,0.4,1.2,0.4,1.8c0,3.3,0,6.6,0,9.9C89.2,110.5,89.3,111.3,88.7,111.8z"/>
		<path class="st38" d="M94.9,98.2c0,4.5,0,9.1,0,13.6c-1.1,0-2.2,0-3.3,0c-0.5-0.5-0.5-1.1-0.5-1.7c0-3.5,0-7,0-10.4
			c0-0.5,0-1.1,0.4-1.6C92.7,97.9,93.8,97.8,94.9,98.2z"/>
		<path class="st26" d="M63.8,111.8c0-3.9,0-7.7,0-11.6c0-2.1,0-2.1,2.1-2.1c0.4,0,0.8,0,1.1,0c0.5,0.5,0.5,1.2,0.5,1.8
			c0,3.3,0,6.7,0,10c0,0.7,0,1.3-0.5,1.8C66,111.8,64.9,111.8,63.8,111.8z"/>
		<path class="st39" d="M76.3,111.8c-1.1,0-2.2,0-3.3,0c-0.5-0.5-0.5-1.1-0.5-1.7c0-3.5,0-7,0-10.4c0-0.5,0-1.1,0.4-1.6
			c1.2-0.3,2.3-0.2,3.5,0c0.4,0.5,0.4,1.2,0.4,1.8c0,3.3,0,6.6,0,9.9C76.8,110.5,76.8,111.3,76.3,111.8z"/>
		<path class="st40" d="M82.5,111.8c-1.1,0-2.2,0-3.3,0c-0.4-0.4-0.5-0.8-0.5-1.3c0-3.8-0.1-7.5,0-11.3c0-0.3,0.1-0.6,0.3-0.9
			c1.1-0.6,2.2-0.2,3.3-0.3c0.2,0.1,0.4,0.2,0.5,0.4c0.5,2.3,0.2,4.6,0.2,6.8c0.1,1.6,0,3.2,0,4.7C83,110.6,83,111.3,82.5,111.8z"/>
		<path class="st41" d="M4.5,46.1c0.6,0.2,0.7,0.7,0.7,1.3c0,6.8,0,13.7,0,20.5c0,0.7-0.1,1.3-1,1.4c-0.5,0-0.9-0.3-1.3-0.7
			c0.4-0.3,0.3-0.8,0.3-1.2c0-5.6,0-11.2,0-16.8c0-0.4,0.1-0.9-0.3-1.2C3.3,48.2,3.9,47.1,4.5,46.1z"/>
		<path class="st42" d="M5.6,96.8c0.8,0.1,0.7,0.7,0.7,1.3c0,4.5,0,9,0,13.5c0,0.5,0.1,1.1-0.7,1.2c-1-0.8-1.9-1.6-2.6-2.6
			c-0.2-3.6-0.3-7.2,0.1-10.8C3.8,98.6,4.7,97.7,5.6,96.8z"/>
		<path class="st43" d="M91.7,98.2c0,4.5,0,9.1,0,13.6c-1,0-2,0-2.9,0c0-4.5,0-9.1,0-13.6C89.7,97.9,90.7,97.9,91.7,98.2z"/>
		<path class="st44" d="M51.4,111.8c0-4.6,0-9.1,0-13.7c1,0,2,0,2.9,0c0,4.6,0,9.1,0,13.7C53.4,111.8,52.4,111.8,51.4,111.8z"/>
		<path class="st45" d="M67.1,111.8c0-4.6,0-9.1,0-13.7c1,0,2,0,2.9,0c0.5,0.5,0.5,1.2,0.5,1.8c0,3.3,0,6.7,0,10
			c0,0.7,0,1.3-0.5,1.8C69.1,111.8,68.1,111.8,67.1,111.8z"/>
		<path class="st46" d="M70.1,111.8c0-4.6,0-9.1,0-13.7c0.7,0,1.3-0.1,2-0.1c0.3-0.1,0.7-0.2,1,0.1c0,4.6,0,9.1,0,13.7
			C72,111.8,71,111.8,70.1,111.8z"/>
		<path class="st47" d="M79.2,98.2c0,4.6,0,9.1,0,13.7c-1,0-2,0-2.9,0c0-4.6,0-9.1,0-13.7C77.3,97.9,78.2,97.9,79.2,98.2z"/>
		<path class="st48" d="M82.5,111.8c0-4.6,0-9.1,0-13.7c1-0.3,2-0.3,2.9,0c0,4.5,0,9.1,0,13.6C84.5,111.8,83.5,111.8,82.5,111.8z"/>
		<path class="st36" d="M28.8,98.2c0.8,0,1.5,0,2.3,0c0,4.6,0,9.1,0,13.7c-0.8,0-1.5,0-2.3,0C28.8,107.3,28.8,102.7,28.8,98.2z"/>
		<path class="st49" d="M3,99.5c0.6,0.9,0.2,2,0.3,3c0.1,2.1,0,4.2,0,6.3c0,0.5,0.2,1.1-0.4,1.5c-1.5-1-2.3-2.5-2.6-4.2
			c0-0.8,0-1.6,0-2.3C0.7,102,1.5,100.5,3,99.5z"/>
		<path class="st50" d="M138.2,87.7c-0.3-0.5-0.3-1.1-0.3-1.7c0-4.7,0-9.4,0-14c1.3,1,1.8,2.3,1.9,3.8
			C140.1,79.8,139.6,83.8,138.2,87.7z"/>
		<path class="st51" d="M32.4,89.3c-0.5-3.6-0.5-7.2,0-10.7C36.1,81.5,36.1,86.2,32.4,89.3z"/>
		<path class="st46" d="M85.5,98.2c-1,0-2,0-2.9,0c0,0,0-0.1,0-0.1l0-0.1c7.8,0,15.7,0,23.5,0c-0.2,0.1-0.4,0.2-0.6,0.2
			c-2,0-3.9,0-5.9,0c-1.5,0-3.1,0-4.6,0c-1.1,0-2.2,0-3.3,0c-1,0-2,0-2.9,0C87.6,98.2,86.5,98.2,85.5,98.2z"/>
		<path class="st26" d="M82.5,98c0,0,0,0.1,0,0.1c-1.1,0-2.2,0-3.2,0.1c-1,0-2,0-2.9,0c-1.1,0-2.2,0-3.3,0c-0.3,0-0.7-0.1-1-0.1
			c0,0,0-0.1,0-0.1C75.5,97.8,79,97.8,82.5,98z"/>
		<path class="st52" d="M61.6,41.9c-1.1,0-2.2-0.1-3.3-0.1c-0.5-0.5-0.5-1.2-0.5-1.8c0-3.3,0-6.7,0-10c0-0.7,0-1.3,0.5-1.8
			c2,0,3.9,0,5.9,0c0,3.6,0,7.3,0,10.9C64.2,41.7,64.2,41.7,61.6,41.9z"/>
		<path class="st53" d="M48.5,41.8c-2,0-3.9,0-5.9,0c-0.5-0.5-0.5-1.2-0.5-1.8c0-3.3,0-6.7,0-10c0-0.7,0-1.3,0.5-1.8
			c2,0,3.9,0,5.9,0C49,28.7,49,29.3,49,30c0,3.3,0,6.7,0,10C49,40.6,49,41.3,48.5,41.8z"/>
		<path class="st54" d="M104.8,41.8c-1.7,0-3.5,0-5.2,0C99,41.3,99,40.6,99,40c0-3.3,0-6.7,0-10c0-0.6,0-1.3,0.5-1.8
			c1.7,0,3.5,0,5.2,0c0.5,0.5,0.5,1.2,0.5,1.8c0,3.3,0,6.7,0,10C105.3,40.6,105.3,41.3,104.8,41.8z"/>
		<path class="st55" d="M104.8,41.8c0-4.6,0-9.1,0-13.7c1.6,0,3.3,0,4.9,0c0,4.6,0,9.1,0,13.7C108,41.8,106.4,41.8,104.8,41.8z"/>
		<path class="st56" d="M99.5,28.2c0,4.6,0,9.1,0,13.7c-1.5,0-3.1,0-4.6,0c-0.5-0.5-0.5-1.2-0.5-1.8c0-3.3,0-6.7,0-10
			c0-0.6,0-1.3,0.5-1.8C96.5,28.2,98,28.2,99.5,28.2z"/>
		<path class="st28" d="M110.3,7.5c0,4.2,0,8.5,0,12.7c0,0.6,0.2,1.2-0.3,1.7c-1-1-2-1.9-3-2.9C103.3,14.9,105,9,110.3,7.5z"/>
		<path class="st57" d="M42.6,28.1c0,4.6,0,9.1,0,13.7c-1.3,0-2.6,0-3.9,0c0-4.6,0-9.1,0-13.7C39.9,28.1,41.3,28.1,42.6,28.1z"/>
		<path class="st29" d="M58.3,28.1c0,4.6,0,9.1,0,13.7c-3.6,0.1-3.6,0.1-3.6-3.4c0-3.4,0-6.9,0-10.3C55.9,28.1,57.1,28.1,58.3,28.1z
			"/>
		<path class="st58" d="M76.3,41.8c-1.1,0-2.2,0-3.3,0c-0.5-0.5-0.5-1.2-0.5-1.8c0-3.3,0-6.7,0-10c0-0.6,0-1.3,0.5-1.8
			c1.1,0,2.2,0,3.3,0c0.5,0.5,0.5,1.2,0.5,1.8c0,3.3,0,6.7,0,10C76.8,40.6,76.8,41.3,76.3,41.8z"/>
		<path class="st59" d="M82.5,41.8c-1.1,0-2.2,0-3.3,0c-0.5-0.5-0.5-1.2-0.5-1.8c0-3.3,0-6.7,0-10c0-0.7,0-1.3,0.5-1.8
			c1.1,0,2.2,0,3.3,0C83,28.7,83,29.3,83,30c0,3.3,0,6.7,0,10C83,40.6,83,41.3,82.5,41.8z"/>
		<path class="st37" d="M88.7,41.8c-1.1,0-2.2,0-3.3,0c-0.5-0.5-0.5-1.2-0.5-1.8c0-3.3,0-6.7,0-10c0-0.6,0-1.3,0.5-1.8
			c1.1,0,2.2,0,3.3,0c0.5,0.5,0.5,1.2,0.5,1.8c0,3.3,0,6.7,0,10C89.2,40.6,89.2,41.3,88.7,41.8z"/>
		<path class="st60" d="M94.9,28.2c0,4.6,0,9.1,0,13.7c-1.1,0-2.2,0-3.3,0c-0.5-0.5-0.5-1.2-0.5-1.8c0-3.3,0-6.7,0-10
			c0-0.7,0-1.3,0.5-1.8C92.8,28.2,93.9,28.2,94.9,28.2z"/>
		<path class="st35" d="M48.5,41.8c0-4.6,0-9.1,0-13.7c1.1,0,2.2,0,3.3,0c0,3.9,0,7.7,0,11.6c0,2.1,0,2.1-2.1,2.1
			C49.2,41.8,48.8,41.8,48.5,41.8z"/>
		<path class="st61" d="M73,28.2c0,4.6,0,9.1,0,13.7c-1,0-2,0-2.9,0c-0.5-0.5-0.5-1.2-0.5-1.8c0-3.3,0-6.7,0-10c0-0.7,0-1.3,0.5-1.8
			C71,28.2,72,28.2,73,28.2z"/>
		<path class="st47" d="M79.2,28.1c0,4.6,0,9.1,0,13.7c-1,0-2,0-2.9,0c0-4.6,0-9.1,0-13.7C77.3,28.2,78.2,28.1,79.2,28.1z"/>
		<path class="st62" d="M70.1,28.2c0,4.6,0,9.1,0,13.7c-2.9,0.1-2.9,0.1-2.9-2.9c0-3.6,0-7.2,0-10.8C68.1,28.1,69.1,28.2,70.1,28.2z
			"/>
		<path class="st48" d="M85.5,28.2c0,4.6,0,9.1,0,13.7c-1,0-2,0-2.9,0c0-4.6,0-9.1,0-13.7C83.5,28.2,84.5,28.2,85.5,28.2z"/>
		<path class="st43" d="M91.7,28.1c0,4.6,0,9.1,0,13.7c-1,0-2,0-2.9,0c0-4.6,0-9.1,0-13.7C89.7,28.2,90.7,28.2,91.7,28.1z"/>
	</g>
</g>
<g id="hZ0ajm.tif">
	<g>
		<g>
			<path class="st63" d="M-137,7.2c8.6,0,17.2,0,25.8,0c0.8,0,1,0.2,1,1c0,41.2,0,82.4,0,123.6c0,1.3-0.7,1-1.3,1
				c-36.3,0-72.6,0-108.9,0c0.2-0.5,0.8-0.4,1.2-0.6c3.5-1.6,5-5.7,3.4-9.2c-0.2-1.1-1-1.8-1.7-2.5c-2.8-2.9-5.8-5.5-8.4-8.6
				c26.2,0,52.5,0,78.7,0c2.1,0,4.2,0,6.3-0.3c7.2-1.1,13.5-3.9,18.8-8.9c3.3-2.9,6-6.3,7.7-10.4c2.1-3.9,3.2-8.1,3.5-12.4
				c0-1.2,0.2-2.4,0.1-3.6c-0.2-3.4-3.3-6.2-6.8-6.2c-3.5,0-6.6,2.7-6.9,6.1c-0.1,1.2-0.2,2.5-0.2,3.7c-0.7,4.7-2.9,8.6-6,12.1
				c-4.9,4.5-10.7,6.2-17.3,6c-11.5-0.2-22.9-0.1-34.4-0.1c-14.4,0-28.9,0-43.3,0c0-0.1,0-0.3,0.1-0.4c1.2-1.2,2.4-2.3,3.5-3.5
				c1.8-1.9,3.8-3.5,5.3-5.6c0.6-0.5,1-1.1,1.3-1.8c1.1-2.9,0.1-6.3-2.4-8.2c-2.6-1.9-6.3-1.9-8.7,0.4c-3,2.9-5.9,5.9-8.8,8.9
				c-4.2,4.2-8.4,8.3-12.5,12.5c-0.5,0.5-1,1.1-1.2,1.9c-0.6,0.5-0.3,1.5-0.9,2c0-13.4,0-26.8,0-40.2c0.6,0.3,0.4,1,0.6,1.4
				c1.1,3.2,4.2,5.2,7.5,4.7c3.3-0.4,5.9-3.2,6-6.6c0.1-3.6,0.9-7.1,2.5-10.3c3.7-6.2,9.1-9.9,16.4-10.8c25.1,0,50.3,0,75.4,0
				c2.3,0,4.7,0,7,0c-2.8,2.8-5.5,5.6-8.3,8.4c-0.6,0.6-1.3,1.1-1.6,2c-1.7,3-1,6.7,1.5,8.8c2.6,2.2,6.5,2.2,8.9-0.1
				c2.7-2.5,5.4-4.9,7.6-7.9c3.9-3,7-6.7,10.4-10.2c1.1-1.1,2.2-2.1,3.2-3.2c1.6-1.6,2.2-3.6,2-5.8c-0.3-2.5-1.8-4.1-3.6-5.6
				c-3-3.2-6.2-6.4-9.4-9.4c-2.4-2.5-4.8-4.9-7.3-7.4C-132.9,10.1-134.5,8.1-137,7.2z"/>
			<path class="st63" d="M-250.2,60.8c0-17.4,0-34.9,0-52.3c0-1.1,0.2-1.3,1.3-1.3c36.2,0,72.4,0,108.6,0c-0.1,0.4-0.4,0.3-0.6,0.4
				c-3.2,1.2-4.9,4-4.6,7.4c0.2,2.5,1.8,4.2,3.6,5.7c2.4,2.4,4.7,4.9,7.3,7.5c-0.9,0-1.5,0-2.1,0c-25.9,0-51.7,0-77.6,0
				c-2.7,0-5.3,0.2-7.9,0.8c-7.9,1.6-14.4,5.5-19.5,11.7c-3,3.5-5.4,7.5-6.6,12c-0.6,1.1-0.7,2.3-1,3.4
				C-249.7,57.6-249.4,59.3-250.2,60.8z"/>
			<path class="st64" d="M-122.1,102.6c-5.3,5.1-11.6,7.9-18.8,8.9c-2.1,0.3-4.2,0.3-6.3,0.3c-26.2,0-52.5,0-78.7,0
				c-6,0-11.9,0-17.9,0c-0.5,0-1.1-0.2-1.5,0.4c-2.2-1.8-4-3.8-4.8-6.6c0-0.5,0-1.1,0-1.6c0.7-0.5,0.3-1.5,0.9-2
				c29.8,0,59.6,0,89.3,0c11.9,0,23.8,0,35.7,0C-123.5,102-122.6,101.8-122.1,102.6z"/>
			<path class="st65" d="M-250.2,105.6c0.8,2.8,2.6,4.9,4.8,6.6c3.6,3.8,7.3,7.5,11,11.1c3.3,3.3,6.2,7,10.2,9.4c-8.3,0-16.7,0-25,0
				c-0.9,0-1.1-0.2-1.1-1.1C-250.1,123-250.2,114.3-250.2,105.6z"/>
			<path class="st66" d="M-250.2,60.8c0.7-1.5,0.5-3.2,0.9-4.8c0.3-1.1,0.4-2.3,1-3.4c0.4,0.6,1.1,0.4,1.7,0.4c4.3,0,8.7,0,13,0
				c-1.6,3.3-2.4,6.7-2.5,10.3c-0.1,3.4-2.7,6.2-6,6.6c-3.3,0.4-6.3-1.5-7.5-4.7c-0.2-0.5,0-1.1-0.6-1.4
				C-250.2,62.8-250.2,61.8-250.2,60.8z"/>
			<path class="st67" d="M-141.9,20.7c-1.8-1.5-3.4-3.2-3.6-5.7c-0.3-3.4,1.5-6.2,4.6-7.4c0.2-0.1,0.6,0,0.6-0.4c1.1,0,2.2,0,3.3,0
				c2.5,0.9,4.1,2.8,5.9,4.6c2.4,2.5,4.9,4.9,7.3,7.4c-0.7,0.6-1.5,0.7-2.4,0.7c-4.7,0-9.4,0-14.1,0
				C-140.9,20-141.7,19.7-141.9,20.7z"/>
			<path class="st68" d="M-224.1,132.8c-4.1-2.4-6.9-6.2-10.2-9.4c5.5,0,10.9,0,16.4,0c0.7,0,1.4,0.1,2-0.3c1.7,3.5,0.2,7.6-3.4,9.2
				c-0.4,0.2-1,0.1-1.2,0.6C-221.7,132.8-222.9,132.8-224.1,132.8z"/>
			<path class="st69" d="M-241.7,40.6c5.2-6.2,11.7-10,19.5-11.7c0.2,1.4,1.3,0.9,2.1,0.9c34.4,0,68.7,0,103.1,0c0.4,0,0.8,0,1.1,0
				c0.7-0.1,1.3-0.2,1.4-1.1c1.8,1.5,3.3,3.1,3.6,5.6c0.2,2.2-0.4,4.2-2,5.8c-1.1,1.1-2.2,2.1-3.2,3.2c-5.1,0-10.3,0-15.4,0
				c-1.2,0-2.4-0.1-3.3-1c-2.3,0-4.7,0-7,0c-25.1,0-50.3,0-75.4,0c0-1.3-1-0.9-1.6-0.9c-7.1,0-14.2,0-21.3,0
				C-240.7,41.2-241.5,41.6-241.7,40.6z"/>
			<path class="st70" d="M-122.1,102.6c-0.5-0.8-1.4-0.6-2.1-0.6c-11.9,0-23.8,0-35.7,0c-29.8,0-59.6,0-89.3,0
				c0.1-0.8,0.6-1.4,1.2-1.9c4.2-4.2,8.4-8.3,12.5-12.5c0.9,0.6,1.9,0.7,2.9,0.7c4.2,0,8.3,0,12.5,0c1.1,0,2.1-0.6,3.2,0
				c-1.5,2.1-3.5,3.7-5.3,5.6c-1.1,1.2-2.4,2.4-3.5,3.5c-0.2,0.1-0.3,0.2-0.1,0.4c14.4,0,28.9,0,43.3,0c11.5,0,22.9-0.2,34.4,0.1
				c6.6,0.1,12.4-1.5,17.3-6c1.5,0.4,3.1,0.3,4.7,0.3c3.9,0,7.8,0,11.7,0C-116.2,96.3-118.8,99.7-122.1,102.6z"/>
			<path class="st71" d="M-114.4,28.7c-0.1,0.8-0.7,1-1.4,1.1c-0.4,0-0.8,0-1.1,0c-34.4,0-68.7,0-103.1,0c-0.7,0-1.9,0.5-2.1-0.9
				c2.6-0.6,5.3-0.8,7.9-0.8c25.9,0,51.7,0,77.6,0c0.6,0,1.2,0,2.1,0c-2.6-2.6-4.9-5.1-7.3-7.5c0.2-1,1-0.7,1.6-0.7
				c4.7,0,9.4,0,14.1,0c0.9,0,1.7-0.2,2.4-0.7C-120.6,22.3-117.5,25.5-114.4,28.7z"/>
			<path class="st72" d="M-215.9,122.9c-0.6,0.4-1.3,0.3-2,0.3c-5.5,0-10.9,0-16.4,0c-3.8-3.6-7.4-7.3-11-11.1
				c0.4-0.6,1-0.4,1.5-0.4c6,0,11.9,0,17.9,0c2.6,3,5.6,5.7,8.4,8.6C-216.9,121.2-216.1,121.9-215.9,122.9z"/>
			<path class="st73" d="M-241.7,40.6c0.2,1,1,0.6,1.6,0.6c7.1,0,14.2,0,21.3,0c0.7,0,1.6-0.4,1.6,0.9c-7.2,0.9-12.6,4.6-16.4,10.8
				c-4.3,0-8.7,0-13,0c-0.6,0-1.2,0.2-1.7-0.4C-247.1,48-244.7,44.1-241.7,40.6z"/>
			<path class="st74" d="M-134.8,42.2c0.9,0.9,2.1,1,3.3,1c5.1,0,10.3,0,15.4,0c-3.4,3.5-6.6,7.2-10.4,10.2
				c-0.4-0.6-1.1-0.4-1.6-0.4c-4.8,0-9.6,0-14.4,0c-0.7,0-1.4,0-2-0.4c0.2-0.9,1-1.4,1.6-2C-140.3,47.8-137.5,45-134.8,42.2z"/>
			<path class="st75" d="M-114.4,92.3c-3.9,0-7.8,0-11.7,0c-1.6,0-3.1,0-4.7-0.3c3.1-3.5,5.3-7.4,6-12.1c4.6,0,9.3,0,13.9,0
				C-111.2,84.2-112.3,88.4-114.4,92.3z"/>
			<path class="st75" d="M-216.9,88.3c-1.1-0.6-2.1,0-3.2,0c-4.2,0-8.3,0-12.5,0c-1,0-2-0.1-2.9-0.7c2.9-3,5.8-6,8.8-8.9
				c2.4-2.3,6.1-2.3,8.7-0.4c2.5,1.8,3.5,5.3,2.4,8.2C-215.9,87.2-216.3,87.8-216.9,88.3z"/>
			<path class="st66" d="M-144.6,52.6c0.6,0.4,1.3,0.4,2,0.4c4.8,0,9.6,0,14.4,0c0.6,0,1.2-0.2,1.6,0.4c-2.2,3-5,5.4-7.6,7.9
				c-2.5,2.3-6.3,2.2-8.9,0.1C-145.6,59.3-146.3,55.6-144.6,52.6z"/>
			<path class="st76" d="M-110.9,79.8c-4.6,0-9.3,0-13.9,0c0.1-1.2,0.1-2.5,0.2-3.7c0.3-3.4,3.4-6.1,6.9-6.1c3.5,0,6.6,2.8,6.8,6.2
				C-110.8,77.4-110.9,78.6-110.9,79.8z"/>
			<path class="st77" d="M-225.8,97.8c-0.2-0.2-0.2-0.3,0.1-0.4C-225.8,97.6-225.8,97.7-225.8,97.8z"/>
		</g>
	</g>
</g>
</svg>
